<svg xmlns="http://www.w3.org/2000/svg"  viewBox="0 0 64 64" width="64px" height="64px"><linearGradient id="u2mMfL6cCtxGADojYP2BTa" x1="32.5" x2="32.5" y1="-.498" y2="65.889" gradientUnits="userSpaceOnUse"><stop offset="0" stop-color="#6dc7ff"/><stop offset="1" stop-color="#e6abff"/></linearGradient><path fill="url(#u2mMfL6cCtxGADojYP2BTa)" d="M55,47H40v-3c0,0,15-2,16-19C56.972,10.416,44.71,5.286,33,5.013V5 c-0.166,0-0.333,0.005-0.5,0.007C32.333,5.005,32.166,5,32,5v0.013C20.29,5.286,8.028,10.416,9,25c1,17,16,19,16,19v3H10l-4-5l2,12 h22V41c0,0-12-4-12-16c0-11.794,4.841-15.85,14.5-15.987C42.159,9.15,47,13.206,47,25c0,12-12,16-12,16v13h22l2-12L55,47z"/><linearGradient id="u2mMfL6cCtxGADojYP2BTb" x1="32.5" x2="32.5" y1="-1.872" y2="68.197" gradientUnits="userSpaceOnUse"><stop offset="0" stop-color="#1a6dff"/><stop offset="1" stop-color="#c822ff"/></linearGradient><path fill="url(#u2mMfL6cCtxGADojYP2BTb)" d="M57,55H35c-0.553,0-1-0.447-1-1V41 c0-0.43,0.275-0.812,0.683-0.948C35.145,39.896,46,36.117,46,25c0-10.648-3.789-14.85-13.514-14.986C22.789,10.15,19,14.352,19,25 c0,11.117,10.855,14.896,11.317,15.052C30.725,40.188,31,40.57,31,41v13c0,0.553-0.447,1-1,1H8c-0.489,0-0.906-0.354-0.986-0.836 l-2-12c-0.075-0.448,0.163-0.892,0.579-1.077c0.412-0.185,0.902-0.068,1.188,0.288L10.48,46h13.799l0.407-1.223 C20.679,43.912,8,39.99,8,25C8,10.008,20.272,4.336,31.817,4.017C31.877,4.006,31.937,4,32,4l0.512,0.007L33,4 c0.063,0,0.125,0.006,0.186,0.018C44.729,4.336,57,10.009,57,25c0,14.99-12.679,18.912-16.687,19.777L40.721,46H54.52l3.699-4.625 c0.286-0.356,0.774-0.473,1.188-0.288c0.416,0.186,0.654,0.629,0.579,1.077l-2,12C57.906,54.646,57.489,55,57,55z M36,53h20.153 l1.229-7.377l-1.602,2.002C55.591,47.862,55.304,48,55,48H40c-0.431,0-0.813-0.275-0.948-0.684l-1-3 c-0.096-0.285-0.057-0.599,0.104-0.853s0.429-0.422,0.728-0.457C39.542,42.929,55,40.916,55,25 c0-4.334-1.588-18.511-22.023-18.987c-0.042-0.001-0.084-0.005-0.124-0.011l-0.341,0.005l-0.365-0.005 c-0.04,0.006-0.081,0.01-0.123,0.011C11.588,6.489,10,20.666,10,25c0,15.916,15.458,17.929,16.116,18.007 c0.299,0.035,0.566,0.203,0.728,0.457s0.2,0.567,0.104,0.853l-1,3C25.812,47.725,25.431,48,25,48H10 c-0.304,0-0.591-0.138-0.781-0.375l-1.602-2.002L8.847,53H29V41.682C26.362,40.57,17,35.858,17,25 c0-11.754,4.631-16.834,15.486-16.986C43.369,8.166,48,13.246,48,25c0,10.858-9.362,15.57-12,16.682V53z"/></svg>